<svg width="121" height="96" viewBox="0 0 121 96" fill="none" xmlns="http://www.w3.org/2000/svg">
<g clip-path="url(#clip0_1399_0)">
<path d="M46 20H51" stroke="#526EE7" stroke-width="2.4" stroke-linecap="round" stroke-linejoin="round"/>
<path d="M61 5V10" stroke="#526EE7" stroke-width="2.4" stroke-linecap="round" stroke-linejoin="round"/>
<path d="M53.9997 13L50.333 9.33333" stroke="#526EE7" stroke-width="2.4" stroke-linecap="round" stroke-linejoin="round"/>
<path d="M68 13L71.6667 9.33333" stroke="#526EE7" stroke-width="2.4" stroke-linecap="round" stroke-linejoin="round"/>
<path d="M53.9997 27L50.333 30.6667" stroke="#526EE7" stroke-width="2.4" stroke-linecap="round" stroke-linejoin="round"/>
<path d="M61 20L76 25L69.3333 28.3333L66 35L61 20Z" stroke="#526EE7" stroke-width="2.4" stroke-linecap="round" stroke-linejoin="round"/>
</g>
<path d="M6.5832 56.0566H2.88594V59.0801H7.18086V60H1.76094V51.4688H7.12226V52.3945H2.88594V55.1367H6.5832V56.0566ZM9.53672 53.6602L9.57187 54.457C10.0562 53.8477 10.6891 53.543 11.4703 53.543C12.8102 53.543 13.4859 54.2988 13.4977 55.8105V60H12.4137V55.8047C12.4098 55.3477 12.3043 55.0098 12.0973 54.791C11.8941 54.5723 11.5758 54.4629 11.1422 54.4629C10.7906 54.4629 10.482 54.5566 10.2164 54.7441C9.95078 54.9316 9.74375 55.1777 9.59531 55.4824V60H8.51133V53.6602H9.53672ZM16.7031 52.125V53.6602H17.8867V54.498H16.7031V58.4297C16.7031 58.6836 16.7559 58.875 16.8613 59.0039C16.9668 59.1289 17.1465 59.1914 17.4004 59.1914C17.5254 59.1914 17.6973 59.168 17.916 59.1211V60C17.6309 60.0781 17.3535 60.1172 17.084 60.1172C16.5996 60.1172 16.2344 59.9707 15.9883 59.6777C15.7422 59.3848 15.6191 58.9688 15.6191 58.4297V54.498H14.4648V53.6602H15.6191V52.125H16.7031ZM21.8891 60.1172C21.0297 60.1172 20.3305 59.8359 19.7914 59.2734C19.2523 58.707 18.9828 57.9512 18.9828 57.0059V56.8066C18.9828 56.1777 19.102 55.6172 19.3402 55.125C19.5824 54.6289 19.9184 54.2422 20.348 53.9648C20.7816 53.6836 21.2504 53.543 21.7543 53.543C22.5785 53.543 23.2191 53.8145 23.6762 54.3574C24.1332 54.9004 24.3617 55.6777 24.3617 56.6895V57.1406H20.0668C20.0824 57.7656 20.2641 58.2715 20.6117 58.6582C20.9633 59.041 21.4086 59.2324 21.9477 59.2324C22.3305 59.2324 22.6547 59.1543 22.9203 58.998C23.1859 58.8418 23.4184 58.6348 23.6176 58.377L24.2797 58.8926C23.7484 59.709 22.9516 60.1172 21.8891 60.1172ZM21.7543 54.4336C21.3168 54.4336 20.9496 54.5938 20.6527 54.9141C20.3559 55.2305 20.1723 55.6758 20.102 56.25H23.2777V56.168C23.2465 55.6172 23.098 55.1914 22.8324 54.8906C22.5668 54.5859 22.2074 54.4336 21.7543 54.4336ZM28.7859 54.6328C28.6219 54.6055 28.4441 54.5918 28.2527 54.5918C27.5418 54.5918 27.0594 54.8945 26.8055 55.5V60H25.7215V53.6602H26.7762L26.7937 54.3926C27.1492 53.8262 27.6531 53.543 28.3055 53.543C28.5164 53.543 28.6766 53.5703 28.7859 53.625V54.6328ZM36.8785 60C36.816 59.875 36.7652 59.6523 36.7262 59.332C36.2223 59.8555 35.6207 60.1172 34.9215 60.1172C34.2965 60.1172 33.7828 59.9414 33.3805 59.5898C32.982 59.2344 32.7828 58.7852 32.7828 58.2422C32.7828 57.582 33.0328 57.0703 33.5328 56.707C34.0367 56.3398 34.7438 56.1562 35.6539 56.1562H36.7086V55.6582C36.7086 55.2793 36.5953 54.9785 36.3688 54.7559C36.1422 54.5293 35.8082 54.416 35.3668 54.416C34.9801 54.416 34.6559 54.5137 34.3941 54.709C34.1324 54.9043 34.0016 55.1406 34.0016 55.418H32.9117C32.9117 55.1016 33.023 54.7969 33.2457 54.5039C33.4723 54.207 33.777 53.9727 34.1598 53.8008C34.5465 53.6289 34.9703 53.543 35.4313 53.543C36.1617 53.543 36.734 53.7266 37.148 54.0938C37.5621 54.457 37.777 54.959 37.7926 55.5996V58.5176C37.7926 59.0996 37.8668 59.5625 38.0152 59.9062V60H36.8785ZM35.0797 59.1738C35.4195 59.1738 35.7418 59.0859 36.0465 58.9102C36.3512 58.7344 36.5719 58.5059 36.7086 58.2246V56.9238H35.859C34.5309 56.9238 33.8668 57.3125 33.8668 58.0898C33.8668 58.4297 33.9801 58.6953 34.2066 58.8867C34.4332 59.0781 34.7242 59.1738 35.0797 59.1738ZM40.7695 60H39.6855V51H40.7695V60ZM43.7875 60H42.7035V51H43.7875V60ZM50.175 52.125V53.6602H51.3586V54.498H50.175V58.4297C50.175 58.6836 50.2277 58.875 50.3332 59.0039C50.4387 59.1289 50.6184 59.1914 50.8723 59.1914C50.9973 59.1914 51.1691 59.168 51.3879 59.1211V60C51.1027 60.0781 50.8254 60.1172 50.5559 60.1172C50.0715 60.1172 49.7062 59.9707 49.4602 59.6777C49.2141 59.3848 49.091 58.9688 49.091 58.4297V54.498H47.9367V53.6602H49.091V52.125H50.175ZM53.8141 54.4277C54.2945 53.8379 54.9195 53.543 55.6891 53.543C57.0289 53.543 57.7047 54.2988 57.7164 55.8105V60H56.6324V55.8047C56.6285 55.3477 56.523 55.0098 56.316 54.791C56.1129 54.5723 55.7945 54.4629 55.3609 54.4629C55.0094 54.4629 54.7008 54.5566 54.4352 54.7441C54.1695 54.9316 53.9625 55.1777 53.8141 55.4824V60H52.7301V51H53.8141V54.4277ZM62.0703 60.1172C61.2109 60.1172 60.5117 59.8359 59.9727 59.2734C59.4336 58.707 59.1641 57.9512 59.1641 57.0059V56.8066C59.1641 56.1777 59.2832 55.6172 59.5215 55.125C59.7637 54.6289 60.0996 54.2422 60.5293 53.9648C60.9629 53.6836 61.4316 53.543 61.9355 53.543C62.7598 53.543 63.4004 53.8145 63.8574 54.3574C64.3145 54.9004 64.543 55.6777 64.543 56.6895V57.1406H60.248C60.2637 57.7656 60.4453 58.2715 60.793 58.6582C61.1445 59.041 61.5898 59.2324 62.1289 59.2324C62.5117 59.2324 62.8359 59.1543 63.1016 58.998C63.3672 58.8418 63.5996 58.6348 63.7988 58.377L64.4609 58.8926C63.9297 59.709 63.1328 60.1172 62.0703 60.1172ZM61.9355 54.4336C61.498 54.4336 61.1309 54.5938 60.834 54.9141C60.5371 55.2305 60.3535 55.6758 60.2832 56.25H63.459V56.168C63.4277 55.6172 63.2793 55.1914 63.0137 54.8906C62.748 54.5859 62.3887 54.4336 61.9355 54.4336ZM70.157 60H69.073V53.6602H70.157V60ZM68.9852 51.9785C68.9852 51.8027 69.0379 51.6543 69.1434 51.5332C69.2527 51.4121 69.4129 51.3516 69.6238 51.3516C69.8348 51.3516 69.9949 51.4121 70.1043 51.5332C70.2137 51.6543 70.2684 51.8027 70.2684 51.9785C70.2684 52.1543 70.2137 52.3008 70.1043 52.418C69.9949 52.5352 69.8348 52.5938 69.6238 52.5938C69.4129 52.5938 69.2527 52.5352 69.1434 52.418C69.0379 52.3008 68.9852 52.1543 68.9852 51.9785ZM73.0227 53.6602L73.0578 54.457C73.5422 53.8477 74.175 53.543 74.9563 53.543C76.2961 53.543 76.9719 54.2988 76.9836 55.8105V60H75.8996V55.8047C75.8957 55.3477 75.7902 55.0098 75.5832 54.791C75.3801 54.5723 75.0617 54.4629 74.6281 54.4629C74.2766 54.4629 73.968 54.5566 73.7023 54.7441C73.4367 54.9316 73.2297 55.1777 73.0813 55.4824V60H71.9973V53.6602H73.0227ZM84.0738 56.9004C84.0738 57.8652 83.8531 58.6426 83.4117 59.2324C82.9703 59.8223 82.3727 60.1172 81.6187 60.1172C80.8492 60.1172 80.2437 59.873 79.8023 59.3848V62.4375H78.7184V53.6602H79.7086L79.7613 54.3633C80.2027 53.8164 80.816 53.543 81.6012 53.543C82.3629 53.543 82.9644 53.8301 83.4059 54.4043C83.8512 54.9785 84.0738 55.7773 84.0738 56.8008V56.9004ZM82.9898 56.7773C82.9898 56.0625 82.8375 55.498 82.5328 55.084C82.2281 54.6699 81.8102 54.4629 81.2789 54.4629C80.6227 54.4629 80.1305 54.7539 79.8023 55.3359V58.3652C80.1266 58.9434 80.6227 59.2324 81.2906 59.2324C81.8102 59.2324 82.2223 59.0273 82.5269 58.6172C82.8355 58.2031 82.9898 57.5898 82.9898 56.7773ZM89.4707 59.373C89.0488 59.8691 88.4297 60.1172 87.6133 60.1172C86.9375 60.1172 86.4219 59.9219 86.0664 59.5312C85.7148 59.1367 85.5371 58.5547 85.5332 57.7852V53.6602H86.6172V57.7559C86.6172 58.7168 87.0078 59.1973 87.7891 59.1973C88.6172 59.1973 89.168 58.8887 89.4414 58.2715V53.6602H90.5254V60H89.4941L89.4707 59.373ZM93.7484 52.125V53.6602H94.932V54.498H93.7484V58.4297C93.7484 58.6836 93.8012 58.875 93.9066 59.0039C94.0121 59.1289 94.1918 59.1914 94.4457 59.1914C94.5707 59.1914 94.7426 59.168 94.9613 59.1211V60C94.6762 60.0781 94.3988 60.1172 94.1293 60.1172C93.6449 60.1172 93.2797 59.9707 93.0336 59.6777C92.7875 59.3848 92.6645 58.9688 92.6645 58.4297V54.498H91.5102V53.6602H92.6645V52.125H93.7484ZM99.9949 58.3184C99.9949 58.0254 99.8836 57.7988 99.6609 57.6387C99.4422 57.4746 99.0574 57.334 98.5066 57.2168C97.9598 57.0996 97.5242 56.959 97.2 56.7949C96.8797 56.6309 96.6414 56.4355 96.4852 56.209C96.3328 55.9824 96.2566 55.7129 96.2566 55.4004C96.2566 54.8809 96.4754 54.4414 96.9129 54.082C97.3543 53.7227 97.9168 53.543 98.6004 53.543C99.3191 53.543 99.9012 53.7285 100.346 54.0996C100.796 54.4707 101.02 54.9453 101.02 55.5234H99.9305C99.9305 55.2266 99.8035 54.9707 99.5496 54.7559C99.2996 54.541 98.9832 54.4336 98.6004 54.4336C98.2059 54.4336 97.8973 54.5195 97.6746 54.6914C97.452 54.8633 97.3406 55.0879 97.3406 55.3652C97.3406 55.627 97.4441 55.8242 97.6512 55.957C97.8582 56.0898 98.2312 56.2168 98.7703 56.3379C99.3133 56.459 99.7527 56.6035 100.089 56.7715C100.425 56.9395 100.673 57.1426 100.833 57.3809C100.997 57.6152 101.079 57.9023 101.079 58.2422C101.079 58.8086 100.852 59.2637 100.399 59.6074C99.9461 59.9473 99.3582 60.1172 98.6355 60.1172C98.1277 60.1172 97.6785 60.0273 97.2879 59.8477C96.8973 59.668 96.5906 59.418 96.368 59.0977C96.1492 58.7734 96.0398 58.4238 96.0398 58.0488H97.1238C97.1434 58.4121 97.2879 58.7012 97.5574 58.916C97.8309 59.127 98.1902 59.2324 98.6355 59.2324C99.0457 59.2324 99.3738 59.1504 99.6199 58.9863C99.8699 58.8184 99.9949 58.5957 99.9949 58.3184ZM106.201 60V54.498H105.199V53.6602H106.201V53.0098C106.201 52.3301 106.382 51.8047 106.746 51.4336C107.109 51.0625 107.623 50.877 108.287 50.877C108.537 50.877 108.785 50.9102 109.031 50.9766L108.972 51.8555C108.789 51.8203 108.593 51.8027 108.386 51.8027C108.035 51.8027 107.763 51.9062 107.572 52.1133C107.38 52.3164 107.285 52.6094 107.285 52.9922V53.6602H108.638V54.498H107.285V60H106.201ZM109.652 56.7715C109.652 56.1504 109.773 55.5918 110.016 55.0957C110.262 54.5996 110.602 54.2168 111.035 53.9473C111.473 53.6777 111.971 53.543 112.529 53.543C113.393 53.543 114.09 53.8418 114.621 54.4395C115.156 55.0371 115.424 55.832 115.424 56.8242V56.9004C115.424 57.5176 115.305 58.0723 115.066 58.5645C114.832 59.0527 114.494 59.4336 114.053 59.707C113.615 59.9805 113.111 60.1172 112.541 60.1172C111.682 60.1172 110.984 59.8184 110.449 59.2207C109.918 58.623 109.652 57.832 109.652 56.8477V56.7715ZM110.742 56.9004C110.742 57.6035 110.904 58.168 111.229 58.5938C111.557 59.0195 111.994 59.2324 112.541 59.2324C113.092 59.2324 113.529 59.0176 113.854 58.5879C114.178 58.1543 114.34 57.5488 114.34 56.7715C114.34 56.0762 114.174 55.5137 113.842 55.084C113.514 54.6504 113.076 54.4336 112.529 54.4336C111.994 54.4336 111.562 54.6465 111.234 55.0723C110.906 55.498 110.742 56.1074 110.742 56.9004ZM119.948 54.6328C119.784 54.6055 119.606 54.5918 119.414 54.5918C118.704 54.5918 118.221 54.8945 117.967 55.5V60H116.883V53.6602H117.938L117.955 54.3926C118.311 53.8262 118.815 53.543 119.467 53.543C119.678 53.543 119.838 53.5703 119.948 53.625V54.6328ZM9.73906 76C9.67656 75.875 9.62578 75.6523 9.58672 75.332C9.08281 75.8555 8.48125 76.1172 7.78203 76.1172C7.15703 76.1172 6.64336 75.9414 6.24102 75.5898C5.84258 75.2344 5.64336 74.7852 5.64336 74.2422C5.64336 73.582 5.89336 73.0703 6.39336 72.707C6.89727 72.3398 7.6043 72.1562 8.51445 72.1562H9.56914V71.6582C9.56914 71.2793 9.45586 70.9785 9.2293 70.7559C9.00274 70.5293 8.66875 70.416 8.22734 70.416C7.84063 70.416 7.51641 70.5137 7.25469 70.709C6.99297 70.9043 6.86211 71.1406 6.86211 71.418H5.77227C5.77227 71.1016 5.88359 70.7969 6.10625 70.5039C6.33281 70.207 6.6375 69.9727 7.02031 69.8008C7.40703 69.6289 7.83086 69.543 8.2918 69.543C9.02227 69.543 9.59453 69.7266 10.0086 70.0938C10.4227 70.457 10.6375 70.959 10.6531 71.5996V74.5176C10.6531 75.0996 10.7273 75.5625 10.8758 75.9062V76H9.73906ZM7.94024 75.1738C8.28008 75.1738 8.60234 75.0859 8.90703 74.9102C9.21172 74.7344 9.43242 74.5059 9.56914 74.2246V72.9238H8.71953C7.39141 72.9238 6.72734 73.3125 6.72734 74.0898C6.72734 74.4297 6.84063 74.6953 7.06719 74.8867C7.29375 75.0781 7.58477 75.1738 7.94024 75.1738ZM13.923 68.125V69.6602H15.1066V70.498H13.923V74.4297C13.923 74.6836 13.9758 74.875 14.0813 75.0039C14.1867 75.1289 14.3664 75.1914 14.6203 75.1914C14.7453 75.1914 14.9172 75.168 15.1359 75.1211V76C14.8508 76.0781 14.5734 76.1172 14.3039 76.1172C13.8195 76.1172 13.4543 75.9707 13.2082 75.6777C12.9621 75.3848 12.8391 74.9688 12.8391 74.4297V70.498H11.6848V69.6602H12.8391V68.125H13.923ZM17.9488 68.125V69.6602H19.1324V70.498H17.9488V74.4297C17.9488 74.6836 18.0016 74.875 18.107 75.0039C18.2125 75.1289 18.3922 75.1914 18.6461 75.1914C18.7711 75.1914 18.943 75.168 19.1617 75.1211V76C18.8766 76.0781 18.5992 76.1172 18.3297 76.1172C17.8453 76.1172 17.4801 75.9707 17.234 75.6777C16.9879 75.3848 16.8648 74.9688 16.8648 74.4297V70.498H15.7105V69.6602H16.8648V68.125H17.9488ZM23.5684 70.6328C23.4043 70.6055 23.2266 70.5918 23.0352 70.5918C22.3242 70.5918 21.8418 70.8945 21.5879 71.5V76H20.5039V69.6602H21.5586L21.5762 70.3926C21.9316 69.8262 22.4355 69.543 23.0879 69.543C23.2988 69.543 23.459 69.5703 23.5684 69.625V70.6328ZM25.848 76H24.7641V69.6602H25.848V76ZM24.6762 67.9785C24.6762 67.8027 24.7289 67.6543 24.8344 67.5332C24.9438 67.4121 25.1039 67.3516 25.3148 67.3516C25.5258 67.3516 25.6859 67.4121 25.7953 67.5332C25.9047 67.6543 25.9594 67.8027 25.9594 67.9785C25.9594 68.1543 25.9047 68.3008 25.7953 68.418C25.6859 68.5352 25.5258 68.5938 25.3148 68.5938C25.1039 68.5938 24.9438 68.5352 24.8344 68.418C24.7289 68.3008 24.6762 68.1543 24.6762 67.9785ZM33.0555 72.9004C33.0555 73.8691 32.8328 74.6484 32.3875 75.2383C31.9422 75.8242 31.3445 76.1172 30.5945 76.1172C29.7938 76.1172 29.1746 75.834 28.7371 75.2676L28.6844 76H27.6883V67H28.7723V70.3574C29.2098 69.8145 29.8133 69.543 30.5828 69.543C31.3523 69.543 31.9559 69.834 32.3934 70.416C32.8348 70.998 33.0555 71.7949 33.0555 72.8066V72.9004ZM31.9715 72.7773C31.9715 72.0391 31.8289 71.4688 31.5438 71.0664C31.2586 70.6641 30.8484 70.4629 30.3133 70.4629C29.5984 70.4629 29.0848 70.7949 28.7723 71.459V74.2012C29.1043 74.8652 29.6219 75.1973 30.325 75.1973C30.8445 75.1973 31.2488 74.9961 31.5379 74.5938C31.827 74.1914 31.9715 73.5859 31.9715 72.7773ZM38.4406 75.373C38.0188 75.8691 37.3996 76.1172 36.5832 76.1172C35.9074 76.1172 35.3918 75.9219 35.0363 75.5312C34.6848 75.1367 34.507 74.5547 34.5031 73.7852V69.6602H35.5871V73.7559C35.5871 74.7168 35.9777 75.1973 36.759 75.1973C37.5871 75.1973 38.1379 74.8887 38.4113 74.2715V69.6602H39.4953V76H38.4641L38.4406 75.373ZM42.7184 68.125V69.6602H43.902V70.498H42.7184V74.4297C42.7184 74.6836 42.7711 74.875 42.8766 75.0039C42.982 75.1289 43.1617 75.1914 43.4156 75.1914C43.5406 75.1914 43.7125 75.168 43.9313 75.1211V76C43.6461 76.0781 43.3688 76.1172 43.0992 76.1172C42.6148 76.1172 42.2496 75.9707 42.0035 75.6777C41.7574 75.3848 41.6344 74.9688 41.6344 74.4297V70.498H40.4801V69.6602H41.6344V68.125H42.7184ZM47.9043 76.1172C47.0449 76.1172 46.3457 75.8359 45.8066 75.2734C45.2676 74.707 44.998 73.9512 44.998 73.0059V72.8066C44.998 72.1777 45.1172 71.6172 45.3555 71.125C45.5977 70.6289 45.9336 70.2422 46.3633 69.9648C46.7969 69.6836 47.2656 69.543 47.7695 69.543C48.5938 69.543 49.2344 69.8145 49.6914 70.3574C50.1484 70.9004 50.377 71.6777 50.377 72.6895V73.1406H46.082C46.0977 73.7656 46.2793 74.2715 46.627 74.6582C46.9785 75.041 47.4238 75.2324 47.9629 75.2324C48.3457 75.2324 48.6699 75.1543 48.9355 74.998C49.2012 74.8418 49.4336 74.6348 49.6328 74.377L50.2949 74.8926C49.7637 75.709 48.9668 76.1172 47.9043 76.1172ZM47.7695 70.4336C47.332 70.4336 46.9648 70.5938 46.668 70.9141C46.3711 71.2305 46.1875 71.6758 46.1172 72.25H49.293V72.168C49.2617 71.6172 49.1133 71.1914 48.8477 70.8906C48.582 70.5859 48.2227 70.4336 47.7695 70.4336ZM55.4281 74.3184C55.4281 74.0254 55.3168 73.7988 55.0941 73.6387C54.8754 73.4746 54.4906 73.334 53.9398 73.2168C53.393 73.0996 52.9574 72.959 52.6332 72.7949C52.3129 72.6309 52.0746 72.4355 51.9184 72.209C51.766 71.9824 51.6898 71.7129 51.6898 71.4004C51.6898 70.8809 51.9086 70.4414 52.3461 70.082C52.7875 69.7227 53.35 69.543 54.0336 69.543C54.7523 69.543 55.3344 69.7285 55.7797 70.0996C56.2289 70.4707 56.4535 70.9453 56.4535 71.5234H55.3637C55.3637 71.2266 55.2367 70.9707 54.9828 70.7559C54.7328 70.541 54.4164 70.4336 54.0336 70.4336C53.6391 70.4336 53.3305 70.5195 53.1078 70.6914C52.8852 70.8633 52.7738 71.0879 52.7738 71.3652C52.7738 71.627 52.8773 71.8242 53.0844 71.957C53.2914 72.0898 53.6645 72.2168 54.2035 72.3379C54.7465 72.459 55.1859 72.6035 55.5219 72.7715C55.8578 72.9395 56.1059 73.1426 56.266 73.3809C56.4301 73.6152 56.5121 73.9023 56.5121 74.2422C56.5121 74.8086 56.2855 75.2637 55.8324 75.6074C55.3793 75.9473 54.7914 76.1172 54.0688 76.1172C53.5609 76.1172 53.1117 76.0273 52.7211 75.8477C52.3305 75.668 52.0238 75.418 51.8012 75.0977C51.5824 74.7734 51.473 74.4238 51.473 74.0488H52.557C52.5766 74.4121 52.7211 74.7012 52.9906 74.916C53.2641 75.127 53.6234 75.2324 54.0688 75.2324C54.4789 75.2324 54.807 75.1504 55.0531 74.9863C55.3031 74.8184 55.4281 74.5957 55.4281 74.3184ZM62.5715 68.125V69.6602H63.7551V70.498H62.5715V74.4297C62.5715 74.6836 62.6242 74.875 62.7297 75.0039C62.8352 75.1289 63.0148 75.1914 63.2687 75.1914C63.3937 75.1914 63.5656 75.168 63.7844 75.1211V76C63.4992 76.0781 63.2219 76.1172 62.9523 76.1172C62.468 76.1172 62.1027 75.9707 61.8566 75.6777C61.6105 75.3848 61.4875 74.9688 61.4875 74.4297V70.498H60.3332V69.6602H61.4875V68.125H62.5715ZM64.7223 72.7715C64.7223 72.1504 64.8434 71.5918 65.0855 71.0957C65.3316 70.5996 65.6715 70.2168 66.1051 69.9473C66.5426 69.6777 67.0406 69.543 67.5992 69.543C68.4625 69.543 69.1598 69.8418 69.691 70.4395C70.2262 71.0371 70.4938 71.832 70.4938 72.8242V72.9004C70.4938 73.5176 70.3746 74.0723 70.1363 74.5645C69.902 75.0527 69.5641 75.4336 69.1227 75.707C68.6852 75.9805 68.1813 76.1172 67.6109 76.1172C66.7516 76.1172 66.0543 75.8184 65.5191 75.2207C64.9879 74.623 64.7223 73.832 64.7223 72.8477V72.7715ZM65.8121 72.9004C65.8121 73.6035 65.9742 74.168 66.2984 74.5938C66.6266 75.0195 67.0641 75.2324 67.6109 75.2324C68.1617 75.2324 68.5992 75.0176 68.9234 74.5879C69.2477 74.1543 69.4098 73.5488 69.4098 72.7715C69.4098 72.0762 69.2438 71.5137 68.9117 71.084C68.5836 70.6504 68.1461 70.4336 67.5992 70.4336C67.0641 70.4336 66.6324 70.6465 66.3043 71.0723C65.9762 71.498 65.8121 72.1074 65.8121 72.9004ZM80.3852 72.9004C80.3852 73.8652 80.1645 74.6426 79.7231 75.2324C79.2816 75.8223 78.684 76.1172 77.9301 76.1172C77.1606 76.1172 76.5551 75.873 76.1137 75.3848V78.4375H75.0297V69.6602H76.0199L76.0727 70.3633C76.5141 69.8164 77.1273 69.543 77.9125 69.543C78.6742 69.543 79.2758 69.8301 79.7172 70.4043C80.1625 70.9785 80.3852 71.7773 80.3852 72.8008V72.9004ZM79.3012 72.7773C79.3012 72.0625 79.1488 71.498 78.8441 71.084C78.5395 70.6699 78.1215 70.4629 77.5902 70.4629C76.934 70.4629 76.4418 70.7539 76.1137 71.3359V74.3652C76.4379 74.9434 76.934 75.2324 77.602 75.2324C78.1215 75.2324 78.5336 75.0273 78.8383 74.6172C79.1469 74.2031 79.3012 73.5898 79.3012 72.7773ZM84.9324 70.6328C84.7684 70.6055 84.5906 70.5918 84.3992 70.5918C83.6883 70.5918 83.2059 70.8945 82.952 71.5V76H81.868V69.6602H82.9227L82.9402 70.3926C83.2957 69.8262 83.7996 69.543 84.452 69.543C84.6629 69.543 84.823 69.5703 84.9324 69.625V70.6328ZM88.548 76.1172C87.6887 76.1172 86.9895 75.8359 86.4504 75.2734C85.9113 74.707 85.6418 73.9512 85.6418 73.0059V72.8066C85.6418 72.1777 85.7609 71.6172 85.9992 71.125C86.2414 70.6289 86.5773 70.2422 87.007 69.9648C87.4406 69.6836 87.9094 69.543 88.4133 69.543C89.2375 69.543 89.8781 69.8145 90.3352 70.3574C90.7922 70.9004 91.0207 71.6777 91.0207 72.6895V73.1406H86.7258C86.7414 73.7656 86.923 74.2715 87.2707 74.6582C87.6223 75.041 88.0676 75.2324 88.6066 75.2324C88.9895 75.2324 89.3137 75.1543 89.5793 74.998C89.8449 74.8418 90.0773 74.6348 90.2766 74.377L90.9387 74.8926C90.4074 75.709 89.6105 76.1172 88.548 76.1172ZM88.4133 70.4336C87.9758 70.4336 87.6086 70.5938 87.3117 70.9141C87.0148 71.2305 86.8313 71.6758 86.7609 72.25H89.9367V72.168C89.9055 71.6172 89.757 71.1914 89.4914 70.8906C89.2258 70.5859 88.8664 70.4336 88.4133 70.4336ZM94.3902 74.5293L95.9605 69.6602H97.068L94.7945 76H93.9684L91.6715 69.6602H92.7789L94.3902 74.5293ZM99.3887 76H98.3047V69.6602H99.3887V76ZM98.2168 67.9785C98.2168 67.8027 98.2695 67.6543 98.375 67.5332C98.4844 67.4121 98.6445 67.3516 98.8555 67.3516C99.0664 67.3516 99.2266 67.4121 99.3359 67.5332C99.4453 67.6543 99.5 67.8027 99.5 67.9785C99.5 68.1543 99.4453 68.3008 99.3359 68.418C99.2266 68.5352 99.0664 68.5938 98.8555 68.5938C98.6445 68.5938 98.4844 68.5352 98.375 68.418C98.2695 68.3008 98.2168 68.1543 98.2168 67.9785ZM103.86 76.1172C103 76.1172 102.301 75.8359 101.762 75.2734C101.223 74.707 100.954 73.9512 100.954 73.0059V72.8066C100.954 72.1777 101.073 71.6172 101.311 71.125C101.553 70.6289 101.889 70.2422 102.319 69.9648C102.752 69.6836 103.221 69.543 103.725 69.543C104.549 69.543 105.19 69.8145 105.647 70.3574C106.104 70.9004 106.332 71.6777 106.332 72.6895V73.1406H102.038C102.053 73.7656 102.235 74.2715 102.582 74.6582C102.934 75.041 103.379 75.2324 103.918 75.2324C104.301 75.2324 104.625 75.1543 104.891 74.998C105.157 74.8418 105.389 74.6348 105.588 74.377L106.25 74.8926C105.719 75.709 104.922 76.1172 103.86 76.1172ZM103.725 70.4336C103.288 70.4336 102.92 70.5938 102.623 70.9141C102.327 71.2305 102.143 71.6758 102.073 72.25H105.248V72.168C105.217 71.6172 105.069 71.1914 104.803 70.8906C104.538 70.5859 104.178 70.4336 103.725 70.4336ZM113.305 74.5059L114.524 69.6602H115.608L113.762 76H112.884L111.343 71.1953L109.843 76H108.964L107.124 69.6602H108.202L109.45 74.4062L110.927 69.6602H111.8L113.305 74.5059ZM35.4844 91.2324C35.8711 91.2324 36.209 91.1152 36.498 90.8809C36.7871 90.6465 36.9473 90.3535 36.9785 90.002H38.0039C37.9844 90.3652 37.8594 90.7109 37.6289 91.0391C37.3984 91.3672 37.0898 91.6289 36.7031 91.8242C36.3203 92.0195 35.9141 92.1172 35.4844 92.1172C34.6211 92.1172 33.9336 91.8301 33.4219 91.2559C32.9141 90.6777 32.6602 89.8887 32.6602 88.8887V88.707C32.6602 88.0898 32.7734 87.541 33 87.0605C33.2266 86.5801 33.5508 86.207 33.9727 85.9414C34.3984 85.6758 34.9004 85.543 35.4785 85.543C36.1895 85.543 36.7793 85.7559 37.248 86.1816C37.7207 86.6074 37.9727 87.1602 38.0039 87.8398H36.9785C36.9473 87.4297 36.791 87.0938 36.5098 86.832C36.2324 86.5664 35.8887 86.4336 35.4785 86.4336C34.9277 86.4336 34.5 86.6328 34.1953 87.0312C33.8945 87.4258 33.7441 87.998 33.7441 88.748V88.9531C33.7441 89.6836 33.8945 90.2461 34.1953 90.6406C34.4961 91.0352 34.9258 91.2324 35.4844 91.2324ZM40.5004 92H39.4164V83H40.5004V92ZM43.5184 92H42.4344V85.6602H43.5184V92ZM42.3465 83.9785C42.3465 83.8027 42.3992 83.6543 42.5047 83.5332C42.6141 83.4121 42.7742 83.3516 42.9852 83.3516C43.1961 83.3516 43.3563 83.4121 43.4656 83.5332C43.575 83.6543 43.6297 83.8027 43.6297 83.9785C43.6297 84.1543 43.575 84.3008 43.4656 84.418C43.3563 84.5352 43.1961 84.5938 42.9852 84.5938C42.7742 84.5938 42.6141 84.5352 42.5047 84.418C42.3992 84.3008 42.3465 84.1543 42.3465 83.9785ZM47.9895 92.1172C47.1301 92.1172 46.4309 91.8359 45.8918 91.2734C45.3527 90.707 45.0832 89.9512 45.0832 89.0059V88.8066C45.0832 88.1777 45.2023 87.6172 45.4406 87.125C45.6828 86.6289 46.0187 86.2422 46.4484 85.9648C46.882 85.6836 47.3508 85.543 47.8547 85.543C48.6789 85.543 49.3195 85.8145 49.7766 86.3574C50.2336 86.9004 50.4621 87.6777 50.4621 88.6895V89.1406H46.1672C46.1828 89.7656 46.3645 90.2715 46.7121 90.6582C47.0637 91.041 47.509 91.2324 48.048 91.2324C48.4309 91.2324 48.7551 91.1543 49.0207 90.998C49.2863 90.8418 49.5187 90.6348 49.718 90.377L50.3801 90.8926C49.8488 91.709 49.052 92.1172 47.9895 92.1172ZM47.8547 86.4336C47.4172 86.4336 47.05 86.5938 46.7531 86.9141C46.4562 87.2305 46.2727 87.6758 46.2023 88.25H49.3781V88.168C49.3469 87.6172 49.1984 87.1914 48.9328 86.8906C48.6672 86.5859 48.3078 86.4336 47.8547 86.4336ZM52.8473 85.6602L52.8824 86.457C53.3668 85.8477 53.9996 85.543 54.7809 85.543C56.1207 85.543 56.7965 86.2988 56.8082 87.8105V92H55.7242V87.8047C55.7203 87.3477 55.6148 87.0098 55.4078 86.791C55.2047 86.5723 54.8863 86.4629 54.4527 86.4629C54.1012 86.4629 53.7926 86.5566 53.527 86.7441C53.2613 86.9316 53.0543 87.1777 52.9059 87.4824V92H51.8219V85.6602H52.8473ZM60.0137 84.125V85.6602H61.1973V86.498H60.0137V90.4297C60.0137 90.6836 60.0664 90.875 60.1719 91.0039C60.2773 91.1289 60.457 91.1914 60.7109 91.1914C60.8359 91.1914 61.0078 91.168 61.2266 91.1211V92C60.9414 92.0781 60.6641 92.1172 60.3945 92.1172C59.9102 92.1172 59.5449 91.9707 59.2988 91.6777C59.0527 91.3848 58.9297 90.9688 58.9297 90.4297V86.498H57.7754V85.6602H58.9297V84.125H60.0137ZM65.3816 88.7773C65.3816 87.8047 65.6121 87.0234 66.073 86.4336C66.534 85.8398 67.1375 85.543 67.8836 85.543C68.6258 85.543 69.2137 85.7969 69.6473 86.3047V83H70.7312V92H69.7352L69.6824 91.3203C69.2488 91.8516 68.6453 92.1172 67.8719 92.1172C67.1375 92.1172 66.5379 91.8164 66.073 91.2148C65.6121 90.6133 65.3816 89.8281 65.3816 88.8594V88.7773ZM66.4656 88.9004C66.4656 89.6191 66.6141 90.1816 66.9109 90.5879C67.2078 90.9941 67.618 91.1973 68.1414 91.1973C68.8289 91.1973 69.3309 90.8887 69.6473 90.2715V87.3594C69.323 86.7617 68.825 86.4629 68.1531 86.4629C67.6219 86.4629 67.2078 86.668 66.9109 87.0781C66.6141 87.4883 66.4656 88.0957 66.4656 88.9004ZM76.4328 92C76.3703 91.875 76.3195 91.6523 76.2805 91.332C75.7766 91.8555 75.175 92.1172 74.4758 92.1172C73.8508 92.1172 73.3371 91.9414 72.9348 91.5898C72.5363 91.2344 72.3371 90.7852 72.3371 90.2422C72.3371 89.582 72.5871 89.0703 73.0871 88.707C73.591 88.3398 74.298 88.1562 75.2082 88.1562H76.2629V87.6582C76.2629 87.2793 76.1496 86.9785 75.923 86.7559C75.6965 86.5293 75.3625 86.416 74.9211 86.416C74.5344 86.416 74.2102 86.5137 73.9484 86.709C73.6867 86.9043 73.5559 87.1406 73.5559 87.418H72.466C72.466 87.1016 72.5773 86.7969 72.8 86.5039C73.0266 86.207 73.3313 85.9727 73.7141 85.8008C74.1008 85.6289 74.5246 85.543 74.9855 85.543C75.716 85.543 76.2883 85.7266 76.7023 86.0938C77.1164 86.457 77.3313 86.959 77.3469 87.5996V90.5176C77.3469 91.0996 77.4211 91.5625 77.5695 91.9062V92H76.4328ZM74.634 91.1738C74.9738 91.1738 75.2961 91.0859 75.6008 90.9102C75.9055 90.7344 76.1262 90.5059 76.2629 90.2246V88.9238H75.4133C74.0852 88.9238 73.4211 89.3125 73.4211 90.0898C73.4211 90.4297 73.5344 90.6953 73.7609 90.8867C73.9875 91.0781 74.2785 91.1738 74.634 91.1738ZM80.6168 84.125V85.6602H81.8004V86.498H80.6168V90.4297C80.6168 90.6836 80.6695 90.875 80.775 91.0039C80.8805 91.1289 81.0602 91.1914 81.3141 91.1914C81.4391 91.1914 81.6109 91.168 81.8297 91.1211V92C81.5445 92.0781 81.2672 92.1172 80.9977 92.1172C80.5133 92.1172 80.148 91.9707 79.902 91.6777C79.6559 91.3848 79.5328 90.9688 79.5328 90.4297V86.498H78.3785V85.6602H79.5328V84.125H80.6168ZM87.0859 92C87.0234 91.875 86.9727 91.6523 86.9336 91.332C86.4297 91.8555 85.8281 92.1172 85.1289 92.1172C84.5039 92.1172 83.9902 91.9414 83.5879 91.5898C83.1895 91.2344 82.9902 90.7852 82.9902 90.2422C82.9902 89.582 83.2402 89.0703 83.7402 88.707C84.2441 88.3398 84.9512 88.1562 85.8613 88.1562H86.916V87.6582C86.916 87.2793 86.8027 86.9785 86.5762 86.7559C86.3496 86.5293 86.0156 86.416 85.5742 86.416C85.1875 86.416 84.8633 86.5137 84.6016 86.709C84.3398 86.9043 84.209 87.1406 84.209 87.418H83.1191C83.1191 87.1016 83.2305 86.7969 83.4531 86.5039C83.6797 86.207 83.9844 85.9727 84.3672 85.8008C84.7539 85.6289 85.1777 85.543 85.6387 85.543C86.3691 85.543 86.9414 85.7266 87.3555 86.0938C87.7695 86.457 87.9844 86.959 88 87.5996V90.5176C88 91.0996 88.0742 91.5625 88.2227 91.9062V92H87.0859ZM85.2871 91.1738C85.627 91.1738 85.9492 91.0859 86.2539 90.9102C86.5586 90.7344 86.7793 90.5059 86.916 90.2246V88.9238H86.0664C84.7383 88.9238 84.0742 89.3125 84.0742 90.0898C84.0742 90.4297 84.1875 90.6953 84.4141 90.8867C84.6406 91.0781 84.9316 91.1738 85.2871 91.1738Z" fill="#728192"/>
<defs>
<clipPath id="clip0_1399_0">
<rect width="40" height="40" fill="white" transform="translate(41)"/>
</clipPath>
</defs>
</svg>
