<svg width="141" height="110" viewBox="0 0 141 110" fill="none" xmlns="http://www.w3.org/2000/svg">
<path opacity="0.4" fill-rule="evenodd" clip-rule="evenodd" d="M116.202 58.5807C116.633 44.1286 120.123 26.6197 108.093 17.5549C96.2517 8.63187 79.4743 19.3011 64.2751 19.4514C49.4044 19.5984 33.8271 10.8028 21.373 18.4124C7.49394 26.8927 -1.60068 43.1592 0.234988 58.5807C1.97743 73.219 18.0087 81.1344 29.9768 90.6935C40.4882 99.089 50.5196 108.516 64.2751 109.73C79.2773 111.054 95.329 107.602 105.711 97.3759C115.915 87.3245 115.788 72.4429 116.202 58.5807Z" fill="#E2E8FF"/>
<path d="M56.1994 82.2497C55.5108 83.4368 54.5224 84.4221 53.3333 85.1071C52.1441 85.792 50.7959 86.1525 49.4235 86.1525C48.0512 86.1525 46.703 85.792 45.5138 85.1071C44.3247 84.4221 43.3363 83.4368 42.6477 82.2497M88.5902 66.5831H10.2569C13.3732 66.5831 16.3618 65.3451 18.5654 63.1416C20.7689 60.938 22.0069 57.9494 22.0069 54.8331V35.2497C22.0069 27.9784 24.8954 21.0048 30.037 15.8632C35.1787 10.7216 42.1522 7.83307 49.4235 7.83307C56.6949 7.83307 63.6684 10.7216 68.81 15.8632C73.9517 21.0048 76.8402 27.9784 76.8402 35.2497V54.8331C76.8402 57.9494 78.0781 60.938 80.2817 63.1416C82.4852 65.3451 85.4739 66.5831 88.5902 66.5831Z" stroke="#526EE7" stroke-width="2" stroke-linecap="round" stroke-linejoin="round"/>
<path d="M86.8739 66.5833H8.5406C11.6569 66.5833 14.6456 65.3453 16.8491 63.1418C19.0527 60.9382 20.2906 57.9496 20.2906 54.8333V35.2499C20.2906 27.9786 23.1791 21.005 28.3208 15.8634C33.4624 10.7218 40.4359 7.83325 47.7073 7.83325C54.9786 7.83325 61.9522 10.7218 67.0938 15.8634C72.2354 21.005 75.1239 27.9786 75.1239 35.2499V54.8333C75.1239 57.9496 76.3619 60.9382 78.5654 63.1418C80.769 65.3453 83.7576 66.5833 86.8739 66.5833Z" fill="#F5F5F5" stroke="#526EE7" stroke-width="1.15337" stroke-linecap="round" stroke-linejoin="round"/>
<path opacity="0.32" d="M31.8271 19.7999C28.25 23.4637 26.1571 28.3636 25.9446 33.5194C25.9276 33.9321 26.3483 34.2115 26.7286 34.0502L59.6894 20.0661C60.0177 19.9268 60.1414 19.5238 59.9433 19.2273C55.5216 12.6098 51.7579 12.6098 46.5608 12.6098C41.218 12.6098 35.6051 15.9302 31.8271 19.7999Z" fill="#6682FB"/>
<g clip-path="url(#clip0_616_29865)">
<path d="M105.005 9.50333L95.1234 26C94.9197 26.3528 94.8119 26.7528 94.8107 27.1603C94.8096 27.5677 94.9151 27.9683 95.1169 28.3223C95.3186 28.6762 95.6096 28.9712 95.9607 29.1778C96.3119 29.3844 96.711 29.4955 97.1184 29.5H116.882C117.289 29.4955 117.688 29.3844 118.039 29.1778C118.391 28.9712 118.681 28.6762 118.883 28.3223C119.085 27.9683 119.191 27.5677 119.189 27.1603C119.188 26.7528 119.08 26.3528 118.877 26L108.995 9.50333C108.787 9.16045 108.494 8.87697 108.145 8.68023C107.795 8.48348 107.401 8.38013 107 8.38013C106.599 8.38013 106.205 8.48348 105.855 8.68023C105.506 8.87697 105.213 9.16045 105.005 9.50333V9.50333Z" stroke="#6682FB" stroke-width="2.24" stroke-linecap="round" stroke-linejoin="round"/>
<path d="M107 15.5V20.1667" stroke="#6682FB" stroke-width="2.24" stroke-linecap="round" stroke-linejoin="round"/>
<path d="M107 24.8333H107.012" stroke="#6682FB" stroke-width="2.24" stroke-linecap="round" stroke-linejoin="round"/>
</g>
<g clip-path="url(#clip1_616_29865)">
<path d="M133 92H101" stroke="#526EE7" stroke-width="1.52381" stroke-linecap="round" stroke-linejoin="round"/>
<path d="M133 84L125 72L117 76L109 66L101 74" stroke="#526EE7" stroke-width="1.52381" stroke-linecap="round" stroke-linejoin="round"/>
</g>
<defs>
<clipPath id="clip0_616_29865">
<rect width="28" height="28" fill="white" transform="translate(93 5)"/>
</clipPath>
<clipPath id="clip1_616_29865">
<rect width="48" height="48" fill="white" transform="matrix(-1 0 0 1 141 54)"/>
</clipPath>
</defs>
</svg>
